<mxfile host="Electron" agent="Mozilla/5.0 (X11; Linux x86_64) AppleWebKit/537.36 (KHTML, like Gecko) draw.io/24.7.5 Chrome/126.0.6478.183 Electron/31.3.0 Safari/537.36" version="24.7.5">
  <diagram name="Page-1" id="x2RneNhpzeJdeaNSGKi6">
    <mxGraphModel dx="989" dy="626" grid="1" gridSize="10" guides="1" tooltips="1" connect="1" arrows="1" fold="1" page="1" pageScale="1" pageWidth="850" pageHeight="1100" math="0" shadow="0">
      <root>
        <mxCell id="0" />
        <mxCell id="1" parent="0" />
        <mxCell id="jW-7ILWIyM_mXDFZD3dg-26" style="edgeStyle=orthogonalEdgeStyle;rounded=0;orthogonalLoop=1;jettySize=auto;html=1;exitX=0;exitY=0.75;exitDx=0;exitDy=0;exitPerimeter=0;entryX=0.5;entryY=0;entryDx=0;entryDy=0;endArrow=none;endFill=0;" edge="1" parent="1" source="jW-7ILWIyM_mXDFZD3dg-25" target="jW-7ILWIyM_mXDFZD3dg-14">
          <mxGeometry relative="1" as="geometry" />
        </mxCell>
        <mxCell id="jW-7ILWIyM_mXDFZD3dg-33" style="edgeStyle=orthogonalEdgeStyle;rounded=0;orthogonalLoop=1;jettySize=auto;html=1;exitX=0;exitY=0.25;exitDx=0;exitDy=0;exitPerimeter=0;entryX=0.5;entryY=0;entryDx=0;entryDy=0;endArrow=none;endFill=0;" edge="1" parent="1" source="jW-7ILWIyM_mXDFZD3dg-25" target="jW-7ILWIyM_mXDFZD3dg-30">
          <mxGeometry relative="1" as="geometry">
            <Array as="points">
              <mxPoint x="110" y="1039.97" />
            </Array>
          </mxGeometry>
        </mxCell>
        <mxCell id="jW-7ILWIyM_mXDFZD3dg-25" value="" style="verticalLabelPosition=bottom;shadow=0;dashed=0;align=center;html=1;verticalAlign=top;shape=mxgraph.electrical.logic_gates.logic_gate;operation=or;rotation=-90;" vertex="1" parent="1">
          <mxGeometry x="130" y="984.97" width="70" height="40" as="geometry" />
        </mxCell>
        <mxCell id="Pe75mvs691sBOPTV4Ebk-203" value="" style="verticalLabelPosition=bottom;shadow=0;dashed=0;align=center;html=1;verticalAlign=top;shape=mxgraph.electrical.logic_gates.logic_gate;operation=or;rotation=-90;" parent="1" vertex="1">
          <mxGeometry x="694" y="944.97" width="70" height="40" as="geometry" />
        </mxCell>
        <mxCell id="Pe75mvs691sBOPTV4Ebk-164" style="edgeStyle=orthogonalEdgeStyle;shape=connector;rounded=0;orthogonalLoop=1;jettySize=auto;html=1;exitX=0;exitY=0.25;exitDx=0;exitDy=0;exitPerimeter=0;labelBackgroundColor=default;strokeColor=default;align=center;verticalAlign=middle;fontFamily=Helvetica;fontSize=11;fontColor=default;endArrow=none;endFill=0;dashed=1;" parent="1" source="Pe75mvs691sBOPTV4Ebk-158" edge="1">
          <mxGeometry relative="1" as="geometry">
            <mxPoint x="265" y="614.97" as="targetPoint" />
            <Array as="points">
              <mxPoint x="570" y="604.97" />
              <mxPoint x="550" y="604.97" />
              <mxPoint x="550" y="684.97" />
            </Array>
          </mxGeometry>
        </mxCell>
        <mxCell id="Pe75mvs691sBOPTV4Ebk-224" style="edgeStyle=orthogonalEdgeStyle;shape=connector;rounded=0;orthogonalLoop=1;jettySize=auto;html=1;exitX=0;exitY=0.75;exitDx=0;exitDy=0;exitPerimeter=0;labelBackgroundColor=default;strokeColor=default;align=center;verticalAlign=middle;fontFamily=Helvetica;fontSize=11;fontColor=default;endArrow=none;endFill=0;entryX=0.5;entryY=0;entryDx=0;entryDy=0;" parent="1" source="Pe75mvs691sBOPTV4Ebk-218" target="Pe75mvs691sBOPTV4Ebk-122" edge="1">
          <mxGeometry relative="1" as="geometry">
            <mxPoint x="680" y="624.97" as="targetPoint" />
            <Array as="points">
              <mxPoint x="210" y="514.97" />
              <mxPoint x="265" y="514.97" />
              <mxPoint x="265" y="614.97" />
              <mxPoint x="205" y="614.97" />
            </Array>
          </mxGeometry>
        </mxCell>
        <mxCell id="Pe75mvs691sBOPTV4Ebk-218" value="" style="verticalLabelPosition=bottom;shadow=0;dashed=0;align=center;html=1;verticalAlign=top;shape=mxgraph.electrical.logic_gates.logic_gate;operation=or;rotation=-90;" parent="1" vertex="1">
          <mxGeometry x="165" y="454.97" width="70" height="40" as="geometry" />
        </mxCell>
        <mxCell id="jW-7ILWIyM_mXDFZD3dg-6" style="edgeStyle=orthogonalEdgeStyle;rounded=0;orthogonalLoop=1;jettySize=auto;html=1;exitX=0;exitY=0.75;exitDx=0;exitDy=0;exitPerimeter=0;entryX=0.5;entryY=0;entryDx=0;entryDy=0;endArrow=none;endFill=0;" edge="1" parent="1" source="Pe75mvs691sBOPTV4Ebk-196" target="Pe75mvs691sBOPTV4Ebk-198">
          <mxGeometry relative="1" as="geometry">
            <Array as="points">
              <mxPoint x="755" y="849.97" />
            </Array>
          </mxGeometry>
        </mxCell>
        <mxCell id="jW-7ILWIyM_mXDFZD3dg-7" style="edgeStyle=orthogonalEdgeStyle;rounded=0;orthogonalLoop=1;jettySize=auto;html=1;exitX=0;exitY=0.25;exitDx=0;exitDy=0;exitPerimeter=0;entryX=0.5;entryY=0;entryDx=0;entryDy=0;endArrow=none;endFill=0;" edge="1" parent="1" source="Pe75mvs691sBOPTV4Ebk-196" target="Pe75mvs691sBOPTV4Ebk-195">
          <mxGeometry relative="1" as="geometry" />
        </mxCell>
        <mxCell id="Pe75mvs691sBOPTV4Ebk-196" value="" style="verticalLabelPosition=bottom;shadow=0;dashed=0;align=center;html=1;verticalAlign=top;shape=mxgraph.electrical.logic_gates.logic_gate;operation=or;rotation=-90;" parent="1" vertex="1">
          <mxGeometry x="665" y="794.97" width="70" height="40" as="geometry" />
        </mxCell>
        <mxCell id="Pe75mvs691sBOPTV4Ebk-153" style="edgeStyle=orthogonalEdgeStyle;shape=connector;rounded=0;orthogonalLoop=1;jettySize=auto;html=1;exitX=0;exitY=0.25;exitDx=0;exitDy=0;exitPerimeter=0;entryX=0.5;entryY=0;entryDx=0;entryDy=0;labelBackgroundColor=default;strokeColor=default;align=center;verticalAlign=middle;fontFamily=Helvetica;fontSize=11;fontColor=default;endArrow=none;endFill=0;" parent="1" source="Pe75mvs691sBOPTV4Ebk-121" target="Pe75mvs691sBOPTV4Ebk-150" edge="1">
          <mxGeometry relative="1" as="geometry">
            <Array as="points">
              <mxPoint x="730" y="574.97" />
            </Array>
          </mxGeometry>
        </mxCell>
        <mxCell id="Pe75mvs691sBOPTV4Ebk-189" style="edgeStyle=orthogonalEdgeStyle;shape=connector;rounded=0;orthogonalLoop=1;jettySize=auto;html=1;labelBackgroundColor=default;strokeColor=default;align=center;verticalAlign=middle;fontFamily=Helvetica;fontSize=11;fontColor=default;endArrow=none;endFill=0;dashed=1;" parent="1" edge="1">
          <mxGeometry relative="1" as="geometry">
            <mxPoint x="550" y="604.97" as="targetPoint" />
            <mxPoint x="730" y="519.97" as="sourcePoint" />
            <Array as="points">
              <mxPoint x="630" y="519.97" />
              <mxPoint x="630" y="559.97" />
              <mxPoint x="550" y="559.97" />
            </Array>
          </mxGeometry>
        </mxCell>
        <mxCell id="Pe75mvs691sBOPTV4Ebk-121" value="" style="verticalLabelPosition=bottom;shadow=0;dashed=0;align=center;html=1;verticalAlign=top;shape=mxgraph.electrical.logic_gates.logic_gate;operation=or;rotation=-90;" parent="1" vertex="1">
          <mxGeometry x="705" y="464.97" width="70" height="40" as="geometry" />
        </mxCell>
        <mxCell id="Pe75mvs691sBOPTV4Ebk-187" style="edgeStyle=orthogonalEdgeStyle;shape=connector;rounded=0;orthogonalLoop=1;jettySize=auto;html=1;exitX=1;exitY=0.5;exitDx=0;exitDy=0;exitPerimeter=0;entryX=0.5;entryY=1;entryDx=0;entryDy=0;labelBackgroundColor=default;strokeColor=default;align=center;verticalAlign=middle;fontFamily=Helvetica;fontSize=11;fontColor=default;endArrow=none;endFill=0;" parent="1" source="Pe75mvs691sBOPTV4Ebk-119" target="Pe75mvs691sBOPTV4Ebk-117" edge="1">
          <mxGeometry relative="1" as="geometry">
            <Array as="points">
              <mxPoint x="690" y="594.97" />
              <mxPoint x="660" y="594.97" />
            </Array>
          </mxGeometry>
        </mxCell>
        <mxCell id="jW-7ILWIyM_mXDFZD3dg-36" style="edgeStyle=orthogonalEdgeStyle;rounded=0;orthogonalLoop=1;jettySize=auto;html=1;exitX=0;exitY=0.25;exitDx=0;exitDy=0;exitPerimeter=0;entryX=0.5;entryY=0;entryDx=0;entryDy=0;endArrow=none;endFill=0;" edge="1" parent="1" source="Pe75mvs691sBOPTV4Ebk-119" target="Pe75mvs691sBOPTV4Ebk-193">
          <mxGeometry relative="1" as="geometry" />
        </mxCell>
        <mxCell id="jW-7ILWIyM_mXDFZD3dg-37" style="edgeStyle=orthogonalEdgeStyle;rounded=0;orthogonalLoop=1;jettySize=auto;html=1;exitX=0;exitY=0.75;exitDx=0;exitDy=0;exitPerimeter=0;entryX=0.5;entryY=0;entryDx=0;entryDy=0;endArrow=none;endFill=0;" edge="1" parent="1" source="Pe75mvs691sBOPTV4Ebk-119" target="Pe75mvs691sBOPTV4Ebk-190">
          <mxGeometry relative="1" as="geometry">
            <Array as="points">
              <mxPoint x="700" y="674.97" />
              <mxPoint x="780" y="674.97" />
            </Array>
          </mxGeometry>
        </mxCell>
        <mxCell id="Pe75mvs691sBOPTV4Ebk-119" value="" style="verticalLabelPosition=bottom;shadow=0;dashed=0;align=center;html=1;verticalAlign=top;shape=mxgraph.electrical.logic_gates.logic_gate;operation=or;rotation=-90;" parent="1" vertex="1">
          <mxGeometry x="655" y="614.97" width="70" height="40" as="geometry" />
        </mxCell>
        <mxCell id="Pe75mvs691sBOPTV4Ebk-107" style="edgeStyle=orthogonalEdgeStyle;shape=connector;rounded=0;orthogonalLoop=1;jettySize=auto;html=1;exitX=0;exitY=0.25;exitDx=0;exitDy=0;exitPerimeter=0;entryX=0.5;entryY=0;entryDx=0;entryDy=0;labelBackgroundColor=default;strokeColor=default;align=center;verticalAlign=middle;fontFamily=Helvetica;fontSize=11;fontColor=default;endArrow=none;endFill=0;" parent="1" source="Pe75mvs691sBOPTV4Ebk-98" edge="1">
          <mxGeometry relative="1" as="geometry">
            <mxPoint x="660" y="394.97" as="targetPoint" />
            <Array as="points">
              <mxPoint x="590" y="384.97" />
              <mxPoint x="660" y="384.97" />
            </Array>
          </mxGeometry>
        </mxCell>
        <mxCell id="Pe75mvs691sBOPTV4Ebk-113" style="edgeStyle=orthogonalEdgeStyle;shape=connector;rounded=0;orthogonalLoop=1;jettySize=auto;html=1;exitX=0;exitY=0.75;exitDx=0;exitDy=0;exitPerimeter=0;entryX=0.5;entryY=0;entryDx=0;entryDy=0;labelBackgroundColor=default;strokeColor=default;align=center;verticalAlign=middle;fontFamily=Helvetica;fontSize=11;fontColor=default;endArrow=none;endFill=0;" parent="1" source="Pe75mvs691sBOPTV4Ebk-98" target="Pe75mvs691sBOPTV4Ebk-112" edge="1">
          <mxGeometry relative="1" as="geometry">
            <Array as="points">
              <mxPoint x="740" y="379.97" />
            </Array>
          </mxGeometry>
        </mxCell>
        <mxCell id="Pe75mvs691sBOPTV4Ebk-98" value="" style="verticalLabelPosition=bottom;shadow=0;dashed=0;align=center;html=1;verticalAlign=top;shape=mxgraph.electrical.logic_gates.logic_gate;operation=or;rotation=-90;" parent="1" vertex="1">
          <mxGeometry x="565" y="324.97" width="70" height="40" as="geometry" />
        </mxCell>
        <mxCell id="Pe75mvs691sBOPTV4Ebk-93" style="edgeStyle=orthogonalEdgeStyle;shape=connector;rounded=0;orthogonalLoop=1;jettySize=auto;html=1;exitX=0;exitY=0.75;exitDx=0;exitDy=0;exitPerimeter=0;entryX=0.5;entryY=0;entryDx=0;entryDy=0;labelBackgroundColor=default;strokeColor=default;align=center;verticalAlign=middle;fontFamily=Helvetica;fontSize=11;fontColor=default;endArrow=none;endFill=0;" parent="1" source="Pe75mvs691sBOPTV4Ebk-89" target="Pe75mvs691sBOPTV4Ebk-92" edge="1">
          <mxGeometry relative="1" as="geometry">
            <Array as="points">
              <mxPoint x="515" y="384.97" />
              <mxPoint x="580" y="384.97" />
            </Array>
          </mxGeometry>
        </mxCell>
        <mxCell id="Pe75mvs691sBOPTV4Ebk-89" value="" style="verticalLabelPosition=bottom;shadow=0;dashed=0;align=center;html=1;verticalAlign=top;shape=mxgraph.electrical.logic_gates.logic_gate;operation=or;rotation=-90;" parent="1" vertex="1">
          <mxGeometry x="470" y="324.97" width="70" height="40" as="geometry" />
        </mxCell>
        <mxCell id="Pe75mvs691sBOPTV4Ebk-1" value="" style="verticalLabelPosition=bottom;shadow=0;dashed=0;align=center;html=1;verticalAlign=top;shape=mxgraph.electrical.logic_gates.logic_gate;operation=or;rotation=-90;" parent="1" vertex="1">
          <mxGeometry x="405" y="54.97" width="70" height="40" as="geometry" />
        </mxCell>
        <mxCell id="Pe75mvs691sBOPTV4Ebk-103" style="edgeStyle=orthogonalEdgeStyle;shape=connector;rounded=0;orthogonalLoop=1;jettySize=auto;html=1;exitX=0;exitY=0.25;exitDx=0;exitDy=0;exitPerimeter=0;entryX=0.5;entryY=0;entryDx=0;entryDy=0;labelBackgroundColor=default;strokeColor=default;align=center;verticalAlign=middle;fontFamily=Helvetica;fontSize=11;fontColor=default;endArrow=none;endFill=0;" parent="1" source="Pe75mvs691sBOPTV4Ebk-83" target="Pe75mvs691sBOPTV4Ebk-102" edge="1">
          <mxGeometry relative="1" as="geometry">
            <Array as="points">
              <mxPoint x="390" y="719.97" />
            </Array>
          </mxGeometry>
        </mxCell>
        <mxCell id="Pe75mvs691sBOPTV4Ebk-104" style="edgeStyle=orthogonalEdgeStyle;shape=connector;rounded=0;orthogonalLoop=1;jettySize=auto;html=1;exitX=0;exitY=0.75;exitDx=0;exitDy=0;exitPerimeter=0;entryX=0.5;entryY=0;entryDx=0;entryDy=0;labelBackgroundColor=default;strokeColor=default;align=center;verticalAlign=middle;fontFamily=Helvetica;fontSize=11;fontColor=default;endArrow=none;endFill=0;" parent="1" source="Pe75mvs691sBOPTV4Ebk-83" target="Pe75mvs691sBOPTV4Ebk-85" edge="1">
          <mxGeometry relative="1" as="geometry">
            <Array as="points">
              <mxPoint x="515" y="724.97" />
              <mxPoint x="490" y="724.97" />
            </Array>
          </mxGeometry>
        </mxCell>
        <mxCell id="Pe75mvs691sBOPTV4Ebk-83" value="" style="verticalLabelPosition=bottom;shadow=0;dashed=0;align=center;html=1;verticalAlign=top;shape=mxgraph.electrical.logic_gates.logic_gate;operation=or;rotation=-90;" parent="1" vertex="1">
          <mxGeometry x="470" y="664.97" width="70" height="40" as="geometry" />
        </mxCell>
        <mxCell id="Pe75mvs691sBOPTV4Ebk-37" value="" style="verticalLabelPosition=bottom;shadow=0;dashed=0;align=center;html=1;verticalAlign=top;shape=mxgraph.electrical.logic_gates.logic_gate;operation=or;rotation=-90;" parent="1" vertex="1">
          <mxGeometry x="395" y="194.97" width="70" height="40" as="geometry" />
        </mxCell>
        <mxCell id="Pe75mvs691sBOPTV4Ebk-69" value="" style="verticalLabelPosition=bottom;shadow=0;dashed=0;align=center;html=1;verticalAlign=top;shape=mxgraph.electrical.logic_gates.logic_gate;operation=or;rotation=-90;" parent="1" vertex="1">
          <mxGeometry x="250" y="324.97" width="70" height="40" as="geometry" />
        </mxCell>
        <mxCell id="Pe75mvs691sBOPTV4Ebk-213" style="edgeStyle=orthogonalEdgeStyle;shape=connector;rounded=0;orthogonalLoop=1;jettySize=auto;html=1;exitX=0;exitY=0.75;exitDx=0;exitDy=0;exitPerimeter=0;entryX=0.5;entryY=0;entryDx=0;entryDy=0;labelBackgroundColor=default;strokeColor=default;align=center;verticalAlign=middle;fontFamily=Helvetica;fontSize=11;fontColor=default;endArrow=none;endFill=0;" parent="1" source="Pe75mvs691sBOPTV4Ebk-63" target="Pe75mvs691sBOPTV4Ebk-67" edge="1">
          <mxGeometry relative="1" as="geometry" />
        </mxCell>
        <mxCell id="Pe75mvs691sBOPTV4Ebk-214" style="edgeStyle=orthogonalEdgeStyle;shape=connector;rounded=0;orthogonalLoop=1;jettySize=auto;html=1;exitX=0;exitY=0.25;exitDx=0;exitDy=0;exitPerimeter=0;entryX=0.5;entryY=0;entryDx=0;entryDy=0;labelBackgroundColor=default;strokeColor=default;align=center;verticalAlign=middle;fontFamily=Helvetica;fontSize=11;fontColor=default;endArrow=none;endFill=0;" parent="1" source="Pe75mvs691sBOPTV4Ebk-63" target="Pe75mvs691sBOPTV4Ebk-65" edge="1">
          <mxGeometry relative="1" as="geometry" />
        </mxCell>
        <mxCell id="Pe75mvs691sBOPTV4Ebk-63" value="" style="verticalLabelPosition=bottom;shadow=0;dashed=0;align=center;html=1;verticalAlign=top;shape=mxgraph.electrical.logic_gates.logic_gate;operation=or;rotation=-90;" parent="1" vertex="1">
          <mxGeometry x="435" y="534.97" width="70" height="40" as="geometry" />
        </mxCell>
        <mxCell id="Pe75mvs691sBOPTV4Ebk-76" value="" style="verticalLabelPosition=bottom;shadow=0;dashed=0;align=center;html=1;verticalAlign=top;shape=mxgraph.electrical.logic_gates.logic_gate;operation=or;rotation=-90;" parent="1" vertex="1">
          <mxGeometry x="315" y="524.97" width="70" height="40" as="geometry" />
        </mxCell>
        <mxCell id="ryoAnqw1Qg5WgR0MWTuV-1" value="Engine unexpectedly ceases function" style="rounded=0;whiteSpace=wrap;html=1;" parent="1" vertex="1">
          <mxGeometry x="265" y="24.97" width="120" height="60" as="geometry" />
        </mxCell>
        <mxCell id="Pe75mvs691sBOPTV4Ebk-12" style="edgeStyle=orthogonalEdgeStyle;shape=connector;rounded=0;orthogonalLoop=1;jettySize=auto;html=1;exitX=0;exitY=0.75;exitDx=0;exitDy=0;exitPerimeter=0;entryX=0.5;entryY=0;entryDx=0;entryDy=0;labelBackgroundColor=default;strokeColor=default;align=center;verticalAlign=middle;fontFamily=Helvetica;fontSize=11;fontColor=default;endArrow=none;endFill=0;" parent="1" source="Pe75mvs691sBOPTV4Ebk-1" target="Pe75mvs691sBOPTV4Ebk-11" edge="1">
          <mxGeometry relative="1" as="geometry">
            <Array as="points">
              <mxPoint x="450" y="114.97" />
              <mxPoint x="520" y="114.97" />
            </Array>
          </mxGeometry>
        </mxCell>
        <mxCell id="Pe75mvs691sBOPTV4Ebk-7" value="" style="group" parent="1" vertex="1" connectable="0">
          <mxGeometry x="120" y="124.97" width="160" height="80" as="geometry" />
        </mxCell>
        <mxCell id="Pe75mvs691sBOPTV4Ebk-4" value="" style="rhombus;whiteSpace=wrap;html=1;fontFamily=Helvetica;fontSize=11;fontColor=default;" parent="Pe75mvs691sBOPTV4Ebk-7" vertex="1">
          <mxGeometry width="160" height="80" as="geometry" />
        </mxCell>
        <mxCell id="Pe75mvs691sBOPTV4Ebk-5" value="Mechanical damage renders engine inoperable" style="text;strokeColor=none;align=center;fillColor=none;html=1;verticalAlign=middle;whiteSpace=wrap;rounded=0;fontSize=11;fontFamily=Helvetica;fontColor=default;" parent="Pe75mvs691sBOPTV4Ebk-7" vertex="1">
          <mxGeometry x="17.5" y="33.333333333333336" width="125" height="24" as="geometry" />
        </mxCell>
        <mxCell id="Pe75mvs691sBOPTV4Ebk-8" style="edgeStyle=orthogonalEdgeStyle;shape=connector;rounded=0;orthogonalLoop=1;jettySize=auto;html=1;exitX=0.5;exitY=0;exitDx=0;exitDy=0;entryX=0;entryY=0.25;entryDx=0;entryDy=0;entryPerimeter=0;labelBackgroundColor=default;strokeColor=default;align=center;verticalAlign=middle;fontFamily=Helvetica;fontSize=11;fontColor=default;endArrow=none;endFill=0;" parent="1" source="Pe75mvs691sBOPTV4Ebk-4" target="Pe75mvs691sBOPTV4Ebk-1" edge="1">
          <mxGeometry relative="1" as="geometry">
            <Array as="points">
              <mxPoint x="200" y="114.97" />
              <mxPoint x="430" y="114.97" />
            </Array>
          </mxGeometry>
        </mxCell>
        <mxCell id="Pe75mvs691sBOPTV4Ebk-9" value="Fuel pressure too low" style="whiteSpace=wrap;html=1;fontFamily=Helvetica;fontSize=11;fontColor=default;" parent="1" vertex="1">
          <mxGeometry x="400" y="124.97" width="60" height="60" as="geometry" />
        </mxCell>
        <mxCell id="Pe75mvs691sBOPTV4Ebk-45" style="edgeStyle=orthogonalEdgeStyle;shape=connector;rounded=0;orthogonalLoop=1;jettySize=auto;html=1;exitX=0.5;exitY=1;exitDx=0;exitDy=0;labelBackgroundColor=default;strokeColor=default;align=center;verticalAlign=middle;fontFamily=Helvetica;fontSize=11;fontColor=default;endArrow=none;endFill=0;entryX=0.5;entryY=0;entryDx=0;entryDy=0;" parent="1" source="Pe75mvs691sBOPTV4Ebk-11" target="Pe75mvs691sBOPTV4Ebk-46" edge="1">
          <mxGeometry relative="1" as="geometry">
            <mxPoint x="650" y="284.97" as="targetPoint" />
            <Array as="points">
              <mxPoint x="520" y="244.97000000000003" />
              <mxPoint x="595" y="244.97000000000003" />
            </Array>
          </mxGeometry>
        </mxCell>
        <mxCell id="Pe75mvs691sBOPTV4Ebk-11" value="Engine initiates shutdown procedure" style="whiteSpace=wrap;html=1;fontFamily=Helvetica;fontSize=11;fontColor=default;" parent="1" vertex="1">
          <mxGeometry x="490" y="124.97" width="60" height="60" as="geometry" />
        </mxCell>
        <mxCell id="Pe75mvs691sBOPTV4Ebk-15" style="edgeStyle=orthogonalEdgeStyle;shape=connector;rounded=0;orthogonalLoop=1;jettySize=auto;html=1;exitX=0.5;exitY=0;exitDx=0;exitDy=0;entryX=0;entryY=0.75;entryDx=0;entryDy=0;entryPerimeter=0;labelBackgroundColor=default;strokeColor=default;align=center;verticalAlign=middle;fontFamily=Helvetica;fontSize=11;fontColor=default;endArrow=none;endFill=0;" parent="1" source="Pe75mvs691sBOPTV4Ebk-42" target="Pe75mvs691sBOPTV4Ebk-1" edge="1">
          <mxGeometry relative="1" as="geometry">
            <mxPoint x="650" y="134.97" as="sourcePoint" />
            <Array as="points">
              <mxPoint x="600" y="114.97" />
              <mxPoint x="450" y="114.97" />
            </Array>
          </mxGeometry>
        </mxCell>
        <mxCell id="Pe75mvs691sBOPTV4Ebk-17" style="edgeStyle=orthogonalEdgeStyle;shape=connector;rounded=0;orthogonalLoop=1;jettySize=auto;html=1;exitX=0.5;exitY=0;exitDx=0;exitDy=0;entryX=0;entryY=0.25;entryDx=0;entryDy=0;entryPerimeter=0;labelBackgroundColor=default;strokeColor=default;align=center;verticalAlign=middle;fontFamily=Helvetica;fontSize=11;fontColor=default;endArrow=none;endFill=0;" parent="1" source="Pe75mvs691sBOPTV4Ebk-87" target="Pe75mvs691sBOPTV4Ebk-1" edge="1">
          <mxGeometry relative="1" as="geometry">
            <mxPoint x="330" y="124.97" as="sourcePoint" />
            <Array as="points">
              <mxPoint x="335" y="114.97" />
              <mxPoint x="430" y="114.97" />
            </Array>
          </mxGeometry>
        </mxCell>
        <mxCell id="Pe75mvs691sBOPTV4Ebk-19" value="Fuel line&lt;br&gt;severed" style="rhombus;whiteSpace=wrap;html=1;fontFamily=Helvetica;fontSize=11;fontColor=default;" parent="1" vertex="1">
          <mxGeometry x="155" y="254.97000000000003" width="100" height="80" as="geometry" />
        </mxCell>
        <mxCell id="Pe75mvs691sBOPTV4Ebk-51" style="edgeStyle=orthogonalEdgeStyle;shape=connector;rounded=0;orthogonalLoop=1;jettySize=auto;html=1;exitX=0.5;exitY=1;exitDx=0;exitDy=0;entryX=0.5;entryY=0;entryDx=0;entryDy=0;labelBackgroundColor=default;strokeColor=default;align=center;verticalAlign=middle;fontFamily=Helvetica;fontSize=11;fontColor=default;endArrow=none;endFill=0;" parent="1" source="Pe75mvs691sBOPTV4Ebk-21" target="Pe75mvs691sBOPTV4Ebk-50" edge="1">
          <mxGeometry relative="1" as="geometry" />
        </mxCell>
        <mxCell id="Pe75mvs691sBOPTV4Ebk-21" value="No fuel available to pump" style="whiteSpace=wrap;html=1;fontFamily=Helvetica;fontSize=11;fontColor=default;" parent="1" vertex="1">
          <mxGeometry x="380" y="254.97000000000003" width="80" height="60" as="geometry" />
        </mxCell>
        <mxCell id="Pe75mvs691sBOPTV4Ebk-24" style="edgeStyle=orthogonalEdgeStyle;shape=connector;rounded=0;orthogonalLoop=1;jettySize=auto;html=1;exitX=1;exitY=0.5;exitDx=0;exitDy=0;exitPerimeter=0;entryX=0.5;entryY=1;entryDx=0;entryDy=0;labelBackgroundColor=default;strokeColor=default;align=center;verticalAlign=middle;fontFamily=Helvetica;fontSize=11;fontColor=default;endArrow=none;endFill=0;" parent="1" target="Pe75mvs691sBOPTV4Ebk-9" edge="1">
          <mxGeometry relative="1" as="geometry">
            <mxPoint x="430" y="194.97" as="sourcePoint" />
          </mxGeometry>
        </mxCell>
        <mxCell id="Pe75mvs691sBOPTV4Ebk-27" style="edgeStyle=orthogonalEdgeStyle;shape=connector;rounded=0;orthogonalLoop=1;jettySize=auto;html=1;exitX=0;exitY=0.25;exitDx=0;exitDy=0;exitPerimeter=0;entryX=0.5;entryY=0;entryDx=0;entryDy=0;labelBackgroundColor=default;strokeColor=default;align=center;verticalAlign=middle;fontFamily=Helvetica;fontSize=11;fontColor=default;endArrow=none;endFill=0;" parent="1" source="Pe75mvs691sBOPTV4Ebk-37" target="Pe75mvs691sBOPTV4Ebk-19" edge="1">
          <mxGeometry relative="1" as="geometry">
            <mxPoint x="325" y="264.97" as="sourcePoint" />
            <Array as="points">
              <mxPoint x="205" y="249.97000000000003" />
            </Array>
          </mxGeometry>
        </mxCell>
        <mxCell id="Pe75mvs691sBOPTV4Ebk-25" value="Fuel pump not pumping avilable fuel" style="whiteSpace=wrap;html=1;fontFamily=Helvetica;fontSize=11;fontColor=default;" parent="1" vertex="1">
          <mxGeometry x="280" y="254.97000000000003" width="80" height="60" as="geometry" />
        </mxCell>
        <mxCell id="Pe75mvs691sBOPTV4Ebk-26" value="Fuel valve shut" style="whiteSpace=wrap;html=1;fontFamily=Helvetica;fontSize=11;fontColor=default;" parent="1" vertex="1">
          <mxGeometry x="480" y="254.97000000000003" width="60" height="60" as="geometry" />
        </mxCell>
        <mxCell id="Pe75mvs691sBOPTV4Ebk-28" style="edgeStyle=orthogonalEdgeStyle;shape=connector;rounded=0;orthogonalLoop=1;jettySize=auto;html=1;exitX=0.5;exitY=0;exitDx=0;exitDy=0;entryX=0;entryY=0.25;entryDx=0;entryDy=0;entryPerimeter=0;labelBackgroundColor=default;strokeColor=default;align=center;verticalAlign=middle;fontFamily=Helvetica;fontSize=11;fontColor=default;endArrow=none;endFill=0;" parent="1" source="Pe75mvs691sBOPTV4Ebk-25" target="Pe75mvs691sBOPTV4Ebk-37" edge="1">
          <mxGeometry relative="1" as="geometry">
            <mxPoint x="325" y="264.97" as="targetPoint" />
            <Array as="points">
              <mxPoint x="315" y="249.97000000000003" />
            </Array>
          </mxGeometry>
        </mxCell>
        <mxCell id="Pe75mvs691sBOPTV4Ebk-30" style="edgeStyle=orthogonalEdgeStyle;shape=connector;rounded=0;orthogonalLoop=1;jettySize=auto;html=1;exitX=0.5;exitY=0;exitDx=0;exitDy=0;entryX=0;entryY=0.75;entryDx=0;entryDy=0;entryPerimeter=0;labelBackgroundColor=default;strokeColor=default;align=center;verticalAlign=middle;fontFamily=Helvetica;fontSize=11;fontColor=default;endArrow=none;endFill=0;" parent="1" source="Pe75mvs691sBOPTV4Ebk-26" target="Pe75mvs691sBOPTV4Ebk-37" edge="1">
          <mxGeometry relative="1" as="geometry">
            <mxPoint x="355" y="264.97" as="targetPoint" />
            <Array as="points">
              <mxPoint x="505" y="249.97000000000003" />
            </Array>
          </mxGeometry>
        </mxCell>
        <mxCell id="Pe75mvs691sBOPTV4Ebk-31" style="edgeStyle=orthogonalEdgeStyle;shape=connector;rounded=0;orthogonalLoop=1;jettySize=auto;html=1;exitX=0.5;exitY=0;exitDx=0;exitDy=0;entryX=0;entryY=0.25;entryDx=0;entryDy=0;entryPerimeter=0;labelBackgroundColor=default;strokeColor=default;align=center;verticalAlign=middle;fontFamily=Helvetica;fontSize=11;fontColor=default;endArrow=none;endFill=0;" parent="1" source="Pe75mvs691sBOPTV4Ebk-9" target="Pe75mvs691sBOPTV4Ebk-1" edge="1">
          <mxGeometry relative="1" as="geometry" />
        </mxCell>
        <mxCell id="Pe75mvs691sBOPTV4Ebk-44" value="" style="group" parent="1" vertex="1" connectable="0">
          <mxGeometry x="560" y="124.97" width="80" height="80" as="geometry" />
        </mxCell>
        <mxCell id="Pe75mvs691sBOPTV4Ebk-42" value="" style="rhombus;whiteSpace=wrap;html=1;fontFamily=Helvetica;fontSize=11;fontColor=default;" parent="Pe75mvs691sBOPTV4Ebk-44" vertex="1">
          <mxGeometry width="80" height="80" as="geometry" />
        </mxCell>
        <mxCell id="Pe75mvs691sBOPTV4Ebk-43" value="Insufficient airflow into engine" style="text;strokeColor=none;align=center;fillColor=none;html=1;verticalAlign=middle;whiteSpace=wrap;rounded=0;fontSize=11;fontFamily=Helvetica;fontColor=default;" parent="Pe75mvs691sBOPTV4Ebk-44" vertex="1">
          <mxGeometry x="10" y="30.400000000000002" width="60" height="24" as="geometry" />
        </mxCell>
        <mxCell id="Pe75mvs691sBOPTV4Ebk-46" value="ECS instructs engine to shut down" style="whiteSpace=wrap;html=1;fontFamily=Helvetica;fontSize=11;fontColor=default;" parent="1" vertex="1">
          <mxGeometry x="560" y="254.97000000000003" width="70" height="60" as="geometry" />
        </mxCell>
        <mxCell id="Pe75mvs691sBOPTV4Ebk-50" value="FMS routes engine to an empty tank" style="whiteSpace=wrap;html=1;fontFamily=Helvetica;fontSize=11;fontColor=default;" parent="1" vertex="1">
          <mxGeometry x="355" y="324.97" width="70" height="60" as="geometry" />
        </mxCell>
        <mxCell id="Pe75mvs691sBOPTV4Ebk-56" value="" style="group" parent="1" vertex="1" connectable="0">
          <mxGeometry x="325" y="594.97" width="60" height="60" as="geometry" />
        </mxCell>
        <mxCell id="Pe75mvs691sBOPTV4Ebk-54" value="" style="shape=offPageConnector;whiteSpace=wrap;html=1;fontFamily=Helvetica;fontSize=11;fontColor=default;rotation=-180;labelBorderColor=none;labelBackgroundColor=none;" parent="Pe75mvs691sBOPTV4Ebk-56" vertex="1">
          <mxGeometry width="60" height="60" as="geometry" />
        </mxCell>
        <mxCell id="Pe75mvs691sBOPTV4Ebk-55" value="All fuel in tank consumed" style="text;strokeColor=none;align=center;fillColor=none;html=1;verticalAlign=middle;whiteSpace=wrap;rounded=0;fontSize=11;fontFamily=Helvetica;fontColor=default;" parent="Pe75mvs691sBOPTV4Ebk-56" vertex="1">
          <mxGeometry x="7.5" y="22.5" width="45" height="22.5" as="geometry" />
        </mxCell>
        <mxCell id="Pe75mvs691sBOPTV4Ebk-207" style="edgeStyle=orthogonalEdgeStyle;shape=connector;rounded=0;orthogonalLoop=1;jettySize=auto;html=1;exitX=0.5;exitY=0;exitDx=0;exitDy=0;entryX=0.647;entryY=-0.019;entryDx=0;entryDy=0;entryPerimeter=0;labelBackgroundColor=default;strokeColor=default;align=center;verticalAlign=middle;fontFamily=Helvetica;fontSize=11;fontColor=default;endArrow=none;endFill=0;" parent="Pe75mvs691sBOPTV4Ebk-56" source="Pe75mvs691sBOPTV4Ebk-55" target="Pe75mvs691sBOPTV4Ebk-55" edge="1">
          <mxGeometry relative="1" as="geometry" />
        </mxCell>
        <mxCell id="Pe75mvs691sBOPTV4Ebk-206" style="edgeStyle=orthogonalEdgeStyle;shape=connector;rounded=0;orthogonalLoop=1;jettySize=auto;html=1;exitX=0;exitY=0.75;exitDx=0;exitDy=0;exitPerimeter=0;entryX=0.5;entryY=0;entryDx=0;entryDy=0;labelBackgroundColor=default;strokeColor=default;align=center;verticalAlign=middle;fontFamily=Helvetica;fontSize=11;fontColor=default;endArrow=none;endFill=0;" parent="1" source="Pe75mvs691sBOPTV4Ebk-58" target="Pe75mvs691sBOPTV4Ebk-61" edge="1">
          <mxGeometry relative="1" as="geometry">
            <Array as="points">
              <mxPoint x="473" y="444.97" />
              <mxPoint x="473" y="464.97" />
            </Array>
          </mxGeometry>
        </mxCell>
        <mxCell id="Pe75mvs691sBOPTV4Ebk-58" value="" style="verticalLabelPosition=bottom;shadow=0;dashed=0;align=center;html=1;verticalAlign=top;shape=mxgraph.electrical.logic_gates.logic_gate;operation=and;fontFamily=Helvetica;fontSize=11;fontColor=default;rotation=-90;" parent="1" vertex="1">
          <mxGeometry x="360" y="394.97" width="60" height="40" as="geometry" />
        </mxCell>
        <mxCell id="Pe75mvs691sBOPTV4Ebk-61" value="Fuel flow not redirected" style="whiteSpace=wrap;html=1;fontFamily=Helvetica;fontSize=11;fontColor=default;" parent="1" vertex="1">
          <mxGeometry x="445" y="464.97" width="55" height="60" as="geometry" />
        </mxCell>
        <mxCell id="Pe75mvs691sBOPTV4Ebk-65" value="Pilot Error" style="rhombus;whiteSpace=wrap;html=1;fontFamily=Helvetica;fontSize=11;fontColor=default;" parent="1" vertex="1">
          <mxGeometry x="405" y="594.97" width="50" height="80" as="geometry" />
        </mxCell>
        <mxCell id="Pe75mvs691sBOPTV4Ebk-67" value="Issued command to switch tank not carried out" style="whiteSpace=wrap;html=1;fontFamily=Helvetica;fontSize=11;fontColor=default;" parent="1" vertex="1">
          <mxGeometry x="465" y="594.97" width="80" height="60" as="geometry" />
        </mxCell>
        <mxCell id="Pe75mvs691sBOPTV4Ebk-72" style="edgeStyle=orthogonalEdgeStyle;shape=connector;rounded=0;orthogonalLoop=1;jettySize=auto;html=1;exitX=0;exitY=0.75;exitDx=0;exitDy=0;exitPerimeter=0;entryX=0.5;entryY=0;entryDx=0;entryDy=0;labelBackgroundColor=default;strokeColor=default;align=center;verticalAlign=middle;fontFamily=Helvetica;fontSize=11;fontColor=default;endArrow=none;endFill=0;" parent="1" source="Pe75mvs691sBOPTV4Ebk-69" target="Pe75mvs691sBOPTV4Ebk-71" edge="1">
          <mxGeometry relative="1" as="geometry" />
        </mxCell>
        <mxCell id="Pe75mvs691sBOPTV4Ebk-82" style="edgeStyle=orthogonalEdgeStyle;shape=connector;rounded=0;orthogonalLoop=1;jettySize=auto;html=1;exitX=0;exitY=0.25;exitDx=0;exitDy=0;exitPerimeter=0;entryX=0.5;entryY=0;entryDx=0;entryDy=0;labelBackgroundColor=default;strokeColor=default;align=center;verticalAlign=middle;fontFamily=Helvetica;fontSize=11;fontColor=default;endArrow=none;endFill=0;" parent="1" source="Pe75mvs691sBOPTV4Ebk-69" target="Pe75mvs691sBOPTV4Ebk-81" edge="1">
          <mxGeometry relative="1" as="geometry">
            <Array as="points">
              <mxPoint x="205" y="379.97" />
            </Array>
          </mxGeometry>
        </mxCell>
        <mxCell id="Pe75mvs691sBOPTV4Ebk-71" value="Fuel pump damaged" style="rhombus;whiteSpace=wrap;html=1;fontFamily=Helvetica;fontSize=11;fontColor=default;" parent="1" vertex="1">
          <mxGeometry x="255" y="374.97" width="80" height="80" as="geometry" />
        </mxCell>
        <mxCell id="Pe75mvs691sBOPTV4Ebk-73" value="Tank is empty" style="whiteSpace=wrap;html=1;fontFamily=Helvetica;fontSize=11;fontColor=default;" parent="1" vertex="1">
          <mxGeometry x="340" y="454.97" width="50" height="60" as="geometry" />
        </mxCell>
        <mxCell id="Pe75mvs691sBOPTV4Ebk-74" style="edgeStyle=orthogonalEdgeStyle;shape=connector;rounded=0;orthogonalLoop=1;jettySize=auto;html=1;exitX=0.5;exitY=0;exitDx=0;exitDy=0;entryX=0;entryY=0.25;entryDx=0;entryDy=0;entryPerimeter=0;labelBackgroundColor=default;strokeColor=default;align=center;verticalAlign=middle;fontFamily=Helvetica;fontSize=11;fontColor=default;endArrow=none;endFill=0;" parent="1" source="Pe75mvs691sBOPTV4Ebk-73" target="Pe75mvs691sBOPTV4Ebk-58" edge="1">
          <mxGeometry relative="1" as="geometry">
            <mxPoint x="360" y="444.97" as="targetPoint" />
            <Array as="points">
              <mxPoint x="365" y="444.97" />
            </Array>
          </mxGeometry>
        </mxCell>
        <mxCell id="Pe75mvs691sBOPTV4Ebk-78" style="edgeStyle=orthogonalEdgeStyle;shape=connector;rounded=0;orthogonalLoop=1;jettySize=auto;html=1;exitX=0;exitY=0.75;exitDx=0;exitDy=0;exitPerimeter=0;labelBackgroundColor=default;strokeColor=default;align=center;verticalAlign=middle;fontFamily=Helvetica;fontSize=11;fontColor=default;endArrow=none;endFill=0;entryX=0.5;entryY=1;entryDx=0;entryDy=0;" parent="1" source="Pe75mvs691sBOPTV4Ebk-76" target="Pe75mvs691sBOPTV4Ebk-54" edge="1">
          <mxGeometry relative="1" as="geometry">
            <mxPoint x="355" y="594.97" as="targetPoint" />
            <Array as="points">
              <mxPoint x="355" y="579.97" />
            </Array>
          </mxGeometry>
        </mxCell>
        <mxCell id="Pe75mvs691sBOPTV4Ebk-79" style="edgeStyle=orthogonalEdgeStyle;shape=connector;rounded=0;orthogonalLoop=1;jettySize=auto;html=1;exitX=0;exitY=0.25;exitDx=0;exitDy=0;exitPerimeter=0;labelBackgroundColor=default;strokeColor=default;align=center;verticalAlign=middle;fontFamily=Helvetica;fontSize=11;fontColor=default;endArrow=none;endFill=0;entryX=0.5;entryY=0;entryDx=0;entryDy=0;" parent="1" source="Pe75mvs691sBOPTV4Ebk-76" target="Pe75mvs691sBOPTV4Ebk-80" edge="1">
          <mxGeometry relative="1" as="geometry">
            <mxPoint x="265" y="584.97" as="targetPoint" />
            <Array as="points">
              <mxPoint x="295" y="579.97" />
            </Array>
          </mxGeometry>
        </mxCell>
        <mxCell id="Pe75mvs691sBOPTV4Ebk-80" value="Fuel tank leak" style="rhombus;whiteSpace=wrap;html=1;fontFamily=Helvetica;fontSize=11;fontColor=default;" parent="1" vertex="1">
          <mxGeometry x="275" y="594.97" width="40" height="80" as="geometry" />
        </mxCell>
        <mxCell id="Pe75mvs691sBOPTV4Ebk-81" value="FMS instructs fuel pump to cease operation" style="whiteSpace=wrap;html=1;fontFamily=Helvetica;fontSize=11;fontColor=default;" parent="1" vertex="1">
          <mxGeometry x="170" y="384.97" width="70" height="60" as="geometry" />
        </mxCell>
        <mxCell id="Pe75mvs691sBOPTV4Ebk-85" value="Command not conveyed to FMS unit" style="whiteSpace=wrap;html=1;fontFamily=Helvetica;fontSize=11;fontColor=default;strokeColor=#00bfff;" parent="1" vertex="1">
          <mxGeometry x="450" y="734.97" width="80" height="60" as="geometry" />
        </mxCell>
        <mxCell id="Pe75mvs691sBOPTV4Ebk-86" value="" style="group" parent="1" vertex="1" connectable="0">
          <mxGeometry x="300" y="150.97" width="90" height="60" as="geometry" />
        </mxCell>
        <mxCell id="Pe75mvs691sBOPTV4Ebk-87" value="Engine on fire" style="rhombus;whiteSpace=wrap;html=1;fontFamily=Helvetica;fontSize=11;fontColor=default;" parent="Pe75mvs691sBOPTV4Ebk-86" vertex="1">
          <mxGeometry x="-10" y="-16" width="90" height="60" as="geometry" />
        </mxCell>
        <mxCell id="Pe75mvs691sBOPTV4Ebk-163" value="" style="edgeStyle=orthogonalEdgeStyle;shape=connector;rounded=0;orthogonalLoop=1;jettySize=auto;html=1;labelBackgroundColor=default;strokeColor=default;align=center;verticalAlign=middle;fontFamily=Helvetica;fontSize=11;fontColor=default;endArrow=none;endFill=0;" parent="1" source="Pe75mvs691sBOPTV4Ebk-92" target="Pe75mvs691sBOPTV4Ebk-159" edge="1">
          <mxGeometry relative="1" as="geometry" />
        </mxCell>
        <mxCell id="Pe75mvs691sBOPTV4Ebk-92" value="FMS instructs valve to close" style="whiteSpace=wrap;html=1;fontFamily=Helvetica;fontSize=11;fontColor=default;" parent="1" vertex="1">
          <mxGeometry x="550" y="394.97" width="60" height="60" as="geometry" />
        </mxCell>
        <mxCell id="Pe75mvs691sBOPTV4Ebk-94" style="edgeStyle=orthogonalEdgeStyle;shape=connector;rounded=0;orthogonalLoop=1;jettySize=auto;html=1;exitX=0.5;exitY=0;exitDx=0;exitDy=0;entryX=0;entryY=0.25;entryDx=0;entryDy=0;entryPerimeter=0;labelBackgroundColor=default;strokeColor=default;align=center;verticalAlign=middle;fontFamily=Helvetica;fontSize=11;fontColor=default;endArrow=none;endFill=0;" parent="1" source="Pe75mvs691sBOPTV4Ebk-21" target="Pe75mvs691sBOPTV4Ebk-37" edge="1">
          <mxGeometry relative="1" as="geometry">
            <Array as="points">
              <mxPoint x="420" y="254.97000000000003" />
            </Array>
          </mxGeometry>
        </mxCell>
        <mxCell id="Pe75mvs691sBOPTV4Ebk-95" value="Valve failed closed" style="rhombus;whiteSpace=wrap;html=1;fontFamily=Helvetica;fontSize=11;fontColor=default;" parent="1" vertex="1">
          <mxGeometry x="455" y="374.97" width="80" height="80" as="geometry" />
        </mxCell>
        <mxCell id="Pe75mvs691sBOPTV4Ebk-96" style="edgeStyle=orthogonalEdgeStyle;shape=connector;rounded=0;orthogonalLoop=1;jettySize=auto;html=1;exitX=0.5;exitY=0;exitDx=0;exitDy=0;entryX=0;entryY=0.25;entryDx=0;entryDy=0;entryPerimeter=0;labelBackgroundColor=default;strokeColor=default;align=center;verticalAlign=middle;fontFamily=Helvetica;fontSize=11;fontColor=default;endArrow=none;endFill=0;" parent="1" edge="1">
          <mxGeometry relative="1" as="geometry">
            <mxPoint x="494.9999999999998" y="374.97" as="sourcePoint" />
            <mxPoint x="494.9999999999998" y="369.97" as="targetPoint" />
            <Array as="points">
              <mxPoint x="495" y="374.97" />
            </Array>
          </mxGeometry>
        </mxCell>
        <mxCell id="Pe75mvs691sBOPTV4Ebk-102" value="Mechanical failure" style="rhombus;whiteSpace=wrap;html=1;fontFamily=Helvetica;fontSize=11;fontColor=default;" parent="1" vertex="1">
          <mxGeometry x="350" y="724.97" width="80" height="80" as="geometry" />
        </mxCell>
        <mxCell id="Pe75mvs691sBOPTV4Ebk-112" value="Command is erroneous" style="whiteSpace=wrap;html=1;fontFamily=Helvetica;fontSize=11;fontColor=default;" parent="1" vertex="1">
          <mxGeometry x="710" y="394.97" width="60" height="60" as="geometry" />
        </mxCell>
        <mxCell id="Pe75mvs691sBOPTV4Ebk-117" value="Mechanical failure detected" style="whiteSpace=wrap;html=1;fontFamily=Helvetica;fontSize=11;fontColor=default;" parent="1" vertex="1">
          <mxGeometry x="630" y="394.97" width="60" height="60" as="geometry" />
        </mxCell>
        <mxCell id="Pe75mvs691sBOPTV4Ebk-154" style="edgeStyle=orthogonalEdgeStyle;shape=connector;rounded=0;orthogonalLoop=1;jettySize=auto;html=1;exitX=0;exitY=0.75;exitDx=0;exitDy=0;exitPerimeter=0;entryX=0.5;entryY=0;entryDx=0;entryDy=0;labelBackgroundColor=default;strokeColor=default;align=center;verticalAlign=middle;fontFamily=Helvetica;fontSize=11;fontColor=default;endArrow=none;endFill=0;" parent="1" source="Pe75mvs691sBOPTV4Ebk-121" target="Pe75mvs691sBOPTV4Ebk-151" edge="1">
          <mxGeometry relative="1" as="geometry">
            <Array as="points">
              <mxPoint x="750" y="524.97" />
              <mxPoint x="795" y="524.97" />
            </Array>
          </mxGeometry>
        </mxCell>
        <mxCell id="Pe75mvs691sBOPTV4Ebk-150" value="ECS Fault" style="rhombus;whiteSpace=wrap;html=1;fontFamily=Helvetica;fontSize=11;fontColor=default;" parent="1" vertex="1">
          <mxGeometry x="700" y="534.97" width="60" height="60" as="geometry" />
        </mxCell>
        <mxCell id="Pe75mvs691sBOPTV4Ebk-151" value="Pilot Error" style="rhombus;whiteSpace=wrap;html=1;fontFamily=Helvetica;fontSize=11;fontColor=default;" parent="1" vertex="1">
          <mxGeometry x="770" y="534.97" width="50" height="80" as="geometry" />
        </mxCell>
        <mxCell id="Pe75mvs691sBOPTV4Ebk-157" style="edgeStyle=orthogonalEdgeStyle;shape=connector;rounded=0;orthogonalLoop=1;jettySize=auto;html=1;entryX=0.5;entryY=0;entryDx=0;entryDy=0;labelBackgroundColor=default;strokeColor=default;align=center;verticalAlign=middle;fontFamily=Helvetica;fontSize=11;fontColor=default;endArrow=none;endFill=0;" parent="1" target="Pe75mvs691sBOPTV4Ebk-161" edge="1">
          <mxGeometry relative="1" as="geometry">
            <mxPoint x="590" y="594.97" as="sourcePoint" />
            <Array as="points">
              <mxPoint x="590" y="614.97" />
              <mxPoint x="570" y="614.97" />
            </Array>
          </mxGeometry>
        </mxCell>
        <mxCell id="Pe75mvs691sBOPTV4Ebk-158" value="" style="verticalLabelPosition=bottom;shadow=0;dashed=0;align=center;html=1;verticalAlign=top;shape=mxgraph.electrical.logic_gates.logic_gate;operation=or;rotation=-90;" parent="1" vertex="1">
          <mxGeometry x="545" y="534.97" width="70" height="40" as="geometry" />
        </mxCell>
        <mxCell id="Pe75mvs691sBOPTV4Ebk-159" value="Command is erroneous" style="whiteSpace=wrap;html=1;fontFamily=Helvetica;fontSize=11;fontColor=default;" parent="1" vertex="1">
          <mxGeometry x="550" y="464.97" width="60" height="60" as="geometry" />
        </mxCell>
        <mxCell id="Pe75mvs691sBOPTV4Ebk-160" style="edgeStyle=orthogonalEdgeStyle;shape=connector;rounded=0;orthogonalLoop=1;jettySize=auto;html=1;exitX=0;exitY=0.75;exitDx=0;exitDy=0;exitPerimeter=0;entryX=0.5;entryY=0;entryDx=0;entryDy=0;labelBackgroundColor=default;strokeColor=default;align=center;verticalAlign=middle;fontFamily=Helvetica;fontSize=11;fontColor=default;endArrow=none;endFill=0;" parent="1" source="Pe75mvs691sBOPTV4Ebk-158" target="Pe75mvs691sBOPTV4Ebk-162" edge="1">
          <mxGeometry relative="1" as="geometry">
            <Array as="points">
              <mxPoint x="590" y="614.97" />
              <mxPoint x="635" y="614.97" />
            </Array>
          </mxGeometry>
        </mxCell>
        <mxCell id="Pe75mvs691sBOPTV4Ebk-161" value="FMS Fault" style="rhombus;whiteSpace=wrap;html=1;fontFamily=Helvetica;fontSize=11;fontColor=default;" parent="1" vertex="1">
          <mxGeometry x="540" y="644.97" width="60" height="60" as="geometry" />
        </mxCell>
        <mxCell id="Pe75mvs691sBOPTV4Ebk-162" value="Pilot Error" style="rhombus;whiteSpace=wrap;html=1;fontFamily=Helvetica;fontSize=11;fontColor=default;" parent="1" vertex="1">
          <mxGeometry x="610" y="634.97" width="50" height="80" as="geometry" />
        </mxCell>
        <mxCell id="Pe75mvs691sBOPTV4Ebk-193" value="Engine damaged by running outside normal parameters" style="whiteSpace=wrap;html=1;fontFamily=Helvetica;fontSize=11;fontColor=default;" parent="1" vertex="1">
          <mxGeometry x="630" y="724.97" width="90" height="60" as="geometry" />
        </mxCell>
        <mxCell id="Pe75mvs691sBOPTV4Ebk-195" value="Erroneous command issued" style="whiteSpace=wrap;html=1;fontFamily=Helvetica;fontSize=11;fontColor=default;" parent="1" vertex="1">
          <mxGeometry x="647.5" y="874.97" width="60" height="60" as="geometry" />
        </mxCell>
        <mxCell id="Pe75mvs691sBOPTV4Ebk-198" value="Corrective command not obeyed" style="whiteSpace=wrap;html=1;fontFamily=Helvetica;fontSize=11;fontColor=default;" parent="1" vertex="1">
          <mxGeometry x="722.5" y="874.97" width="65" height="60" as="geometry" />
        </mxCell>
        <mxCell id="Pe75mvs691sBOPTV4Ebk-217" value="FMS Fault" style="rhombus;whiteSpace=wrap;html=1;fontFamily=Helvetica;fontSize=11;fontColor=default;" parent="1" vertex="1">
          <mxGeometry x="120" y="534.97" width="60" height="60" as="geometry" />
        </mxCell>
        <mxCell id="Pe75mvs691sBOPTV4Ebk-219" style="edgeStyle=orthogonalEdgeStyle;shape=connector;rounded=0;orthogonalLoop=1;jettySize=auto;html=1;exitX=0;exitY=0.25;exitDx=0;exitDy=0;exitPerimeter=0;entryX=0.5;entryY=0;entryDx=0;entryDy=0;labelBackgroundColor=default;strokeColor=default;align=center;verticalAlign=middle;fontFamily=Helvetica;fontSize=11;fontColor=default;endArrow=none;endFill=0;" parent="1" source="Pe75mvs691sBOPTV4Ebk-218" target="Pe75mvs691sBOPTV4Ebk-217" edge="1">
          <mxGeometry relative="1" as="geometry">
            <Array as="points">
              <mxPoint x="190" y="514.97" />
              <mxPoint x="150" y="514.97" />
            </Array>
          </mxGeometry>
        </mxCell>
        <mxCell id="Pe75mvs691sBOPTV4Ebk-220" style="edgeStyle=orthogonalEdgeStyle;shape=connector;rounded=0;orthogonalLoop=1;jettySize=auto;html=1;exitX=0;exitY=0.75;exitDx=0;exitDy=0;exitPerimeter=0;entryX=0.5;entryY=0;entryDx=0;entryDy=0;labelBackgroundColor=default;strokeColor=default;align=center;verticalAlign=middle;fontFamily=Helvetica;fontSize=11;fontColor=default;endArrow=none;endFill=0;" parent="1" source="Pe75mvs691sBOPTV4Ebk-218" target="Pe75mvs691sBOPTV4Ebk-221" edge="1">
          <mxGeometry relative="1" as="geometry">
            <Array as="points">
              <mxPoint x="210" y="514.97" />
              <mxPoint x="215" y="514.97" />
            </Array>
          </mxGeometry>
        </mxCell>
        <mxCell id="Pe75mvs691sBOPTV4Ebk-221" value="Pilot Error" style="rhombus;whiteSpace=wrap;html=1;fontFamily=Helvetica;fontSize=11;fontColor=default;" parent="1" vertex="1">
          <mxGeometry x="190" y="524.97" width="50" height="80" as="geometry" />
        </mxCell>
        <mxCell id="Pe75mvs691sBOPTV4Ebk-232" style="edgeStyle=orthogonalEdgeStyle;shape=connector;rounded=0;orthogonalLoop=1;jettySize=auto;html=1;exitX=0;exitY=0.25;exitDx=0;exitDy=0;exitPerimeter=0;entryX=0.5;entryY=0;entryDx=0;entryDy=0;labelBackgroundColor=default;strokeColor=default;align=center;verticalAlign=middle;fontFamily=Helvetica;fontSize=11;fontColor=default;endArrow=none;endFill=0;" parent="1" source="Pe75mvs691sBOPTV4Ebk-226" target="Pe75mvs691sBOPTV4Ebk-227" edge="1">
          <mxGeometry relative="1" as="geometry" />
        </mxCell>
        <mxCell id="Pe75mvs691sBOPTV4Ebk-233" style="edgeStyle=orthogonalEdgeStyle;shape=connector;rounded=0;orthogonalLoop=1;jettySize=auto;html=1;exitX=0;exitY=0.75;exitDx=0;exitDy=0;exitPerimeter=0;entryX=0.5;entryY=0;entryDx=0;entryDy=0;labelBackgroundColor=default;strokeColor=default;align=center;verticalAlign=middle;fontFamily=Helvetica;fontSize=11;fontColor=default;endArrow=none;endFill=0;" parent="1" source="Pe75mvs691sBOPTV4Ebk-226" target="Pe75mvs691sBOPTV4Ebk-228" edge="1">
          <mxGeometry relative="1" as="geometry" />
        </mxCell>
        <mxCell id="Pe75mvs691sBOPTV4Ebk-226" value="" style="verticalLabelPosition=bottom;shadow=0;dashed=0;align=center;html=1;verticalAlign=top;shape=mxgraph.electrical.logic_gates.logic_gate;operation=or;rotation=-90;" parent="1" vertex="1">
          <mxGeometry x="470" y="850" width="70" height="40" as="geometry" />
        </mxCell>
        <mxCell id="Pe75mvs691sBOPTV4Ebk-227" value="Command lost in transit" style="whiteSpace=wrap;html=1;fontFamily=Helvetica;fontSize=11;fontColor=default;strokeColor=#00bfff;" parent="1" vertex="1">
          <mxGeometry x="420" y="920" width="80" height="60" as="geometry" />
        </mxCell>
        <mxCell id="jW-7ILWIyM_mXDFZD3dg-23" value="" style="edgeStyle=orthogonalEdgeStyle;rounded=0;orthogonalLoop=1;jettySize=auto;html=1;endArrow=none;endFill=0;" edge="1" parent="1" source="Pe75mvs691sBOPTV4Ebk-228" target="jW-7ILWIyM_mXDFZD3dg-22">
          <mxGeometry relative="1" as="geometry" />
        </mxCell>
        <mxCell id="Pe75mvs691sBOPTV4Ebk-228" value="Command still in Ethernet buffer" style="whiteSpace=wrap;html=1;fontFamily=Helvetica;fontSize=11;fontColor=default;strokeColor=#00bfff;" parent="1" vertex="1">
          <mxGeometry x="510" y="920" width="80" height="60" as="geometry" />
        </mxCell>
        <mxCell id="Pe75mvs691sBOPTV4Ebk-190" value="Transient fault" style="rhombus;whiteSpace=wrap;html=1;fontFamily=Helvetica;fontSize=11;fontColor=default;" parent="1" vertex="1">
          <mxGeometry x="740" y="684.97" width="80" height="60" as="geometry" />
        </mxCell>
        <mxCell id="jW-7ILWIyM_mXDFZD3dg-4" style="edgeStyle=orthogonalEdgeStyle;rounded=0;orthogonalLoop=1;jettySize=auto;html=1;exitX=0;exitY=0.75;exitDx=0;exitDy=0;exitPerimeter=0;entryX=0.5;entryY=0;entryDx=0;entryDy=0;endArrow=none;endFill=0;" edge="1" parent="1" source="Pe75mvs691sBOPTV4Ebk-203" target="Pe75mvs691sBOPTV4Ebk-208">
          <mxGeometry relative="1" as="geometry" />
        </mxCell>
        <mxCell id="jW-7ILWIyM_mXDFZD3dg-5" style="edgeStyle=orthogonalEdgeStyle;rounded=0;orthogonalLoop=1;jettySize=auto;html=1;exitX=0;exitY=0.25;exitDx=0;exitDy=0;exitPerimeter=0;entryX=0.5;entryY=0;entryDx=0;entryDy=0;endArrow=none;endFill=0;" edge="1" parent="1" source="Pe75mvs691sBOPTV4Ebk-203" target="Pe75mvs691sBOPTV4Ebk-215">
          <mxGeometry relative="1" as="geometry" />
        </mxCell>
        <mxCell id="Pe75mvs691sBOPTV4Ebk-208" value="ECS Fault" style="rhombus;whiteSpace=wrap;html=1;fontFamily=Helvetica;fontSize=11;fontColor=default;" parent="1" vertex="1">
          <mxGeometry x="735" y="1014.97" width="80" height="60" as="geometry" />
        </mxCell>
        <mxCell id="Pe75mvs691sBOPTV4Ebk-215" value="Command not conveyed to ECS unit" style="whiteSpace=wrap;html=1;fontFamily=Helvetica;fontSize=11;fontColor=default;strokeColor=#00bfff;" parent="1" vertex="1">
          <mxGeometry x="645" y="1014.97" width="80" height="60" as="geometry" />
        </mxCell>
        <mxCell id="jW-7ILWIyM_mXDFZD3dg-8" style="edgeStyle=orthogonalEdgeStyle;rounded=0;orthogonalLoop=1;jettySize=auto;html=1;exitX=0.5;exitY=1;exitDx=0;exitDy=0;entryX=1;entryY=0.5;entryDx=0;entryDy=0;entryPerimeter=0;endArrow=none;endFill=0;dashed=1;" edge="1" parent="1" source="Pe75mvs691sBOPTV4Ebk-227" target="Pe75mvs691sBOPTV4Ebk-124">
          <mxGeometry relative="1" as="geometry">
            <Array as="points">
              <mxPoint x="460" y="1000" />
              <mxPoint x="400" y="1000" />
              <mxPoint x="400" y="845" />
              <mxPoint x="310" y="845" />
              <mxPoint x="310" y="725" />
              <mxPoint x="250" y="725" />
              <mxPoint x="250" y="695" />
            </Array>
          </mxGeometry>
        </mxCell>
        <mxCell id="jW-7ILWIyM_mXDFZD3dg-9" style="edgeStyle=orthogonalEdgeStyle;rounded=0;orthogonalLoop=1;jettySize=auto;html=1;exitX=0.5;exitY=1;exitDx=0;exitDy=0;entryX=1;entryY=0.5;entryDx=0;entryDy=0;entryPerimeter=0;endArrow=none;endFill=0;dashed=1;" edge="1" parent="1" source="Pe75mvs691sBOPTV4Ebk-85" target="Pe75mvs691sBOPTV4Ebk-226">
          <mxGeometry relative="1" as="geometry">
            <Array as="points">
              <mxPoint x="490" y="834.97" />
              <mxPoint x="505" y="834.97" />
            </Array>
          </mxGeometry>
        </mxCell>
        <mxCell id="jW-7ILWIyM_mXDFZD3dg-11" style="edgeStyle=orthogonalEdgeStyle;rounded=0;orthogonalLoop=1;jettySize=auto;html=1;exitX=0.5;exitY=1;exitDx=0;exitDy=0;entryX=1;entryY=0.5;entryDx=0;entryDy=0;entryPerimeter=0;endArrow=none;endFill=0;dashed=1;" edge="1" parent="1" source="Pe75mvs691sBOPTV4Ebk-215" target="Pe75mvs691sBOPTV4Ebk-226">
          <mxGeometry relative="1" as="geometry">
            <Array as="points">
              <mxPoint x="685" y="1094.97" />
              <mxPoint x="610" y="1094.97" />
              <mxPoint x="610" y="834.97" />
              <mxPoint x="505" y="834.97" />
            </Array>
          </mxGeometry>
        </mxCell>
        <mxCell id="Pe75mvs691sBOPTV4Ebk-143" value="" style="verticalLabelPosition=bottom;shadow=0;dashed=0;align=center;html=1;verticalAlign=top;shape=mxgraph.electrical.logic_gates.logic_gate;operation=or;rotation=-90;" parent="1" vertex="1">
          <mxGeometry x="120" y="834.97" width="70" height="40" as="geometry" />
        </mxCell>
        <mxCell id="Pe75mvs691sBOPTV4Ebk-139" value="" style="verticalLabelPosition=bottom;shadow=0;dashed=0;align=center;html=1;verticalAlign=top;shape=mxgraph.electrical.logic_gates.logic_gate;operation=or;rotation=-90;" parent="1" vertex="1">
          <mxGeometry x="225" y="834.97" width="70" height="40" as="geometry" />
        </mxCell>
        <mxCell id="Pe75mvs691sBOPTV4Ebk-231" style="edgeStyle=orthogonalEdgeStyle;shape=connector;rounded=0;orthogonalLoop=1;jettySize=auto;html=1;exitX=0.5;exitY=1;exitDx=0;exitDy=0;labelBackgroundColor=default;strokeColor=default;align=center;verticalAlign=middle;fontFamily=Helvetica;fontSize=11;fontColor=default;endArrow=none;endFill=0;" parent="1" source="Pe75mvs691sBOPTV4Ebk-122" edge="1">
          <mxGeometry relative="1" as="geometry">
            <mxPoint x="204.91666666666674" y="724.97" as="targetPoint" />
          </mxGeometry>
        </mxCell>
        <mxCell id="Pe75mvs691sBOPTV4Ebk-122" value="Produced by corruption of other command in transit" style="whiteSpace=wrap;html=1;fontFamily=Helvetica;fontSize=11;fontColor=default;strokeColor=#01bbfa;" parent="1" vertex="1">
          <mxGeometry x="160" y="624.97" width="90" height="60" as="geometry" />
        </mxCell>
        <mxCell id="Pe75mvs691sBOPTV4Ebk-124" value="" style="verticalLabelPosition=bottom;shadow=0;dashed=0;align=center;html=1;verticalAlign=top;shape=mxgraph.electrical.logic_gates.logic_gate;operation=and;fontFamily=Helvetica;fontSize=11;fontColor=default;rotation=-90;" parent="1" vertex="1">
          <mxGeometry x="175" y="704.97" width="60" height="40" as="geometry" />
        </mxCell>
        <mxCell id="Pe75mvs691sBOPTV4Ebk-125" value="ALL-RED not engaged" style="whiteSpace=wrap;html=1;fontFamily=Helvetica;fontSize=11;fontColor=default;strokeColor=#01bbfa;" parent="1" vertex="1">
          <mxGeometry x="120" y="904.97" width="80" height="60" as="geometry" />
        </mxCell>
        <mxCell id="Pe75mvs691sBOPTV4Ebk-145" style="edgeStyle=orthogonalEdgeStyle;shape=connector;rounded=0;orthogonalLoop=1;jettySize=auto;html=1;exitX=0;exitY=0.75;exitDx=0;exitDy=0;exitPerimeter=0;entryX=0.5;entryY=0;entryDx=0;entryDy=0;labelBackgroundColor=default;strokeColor=default;align=center;verticalAlign=middle;fontFamily=Helvetica;fontSize=11;fontColor=default;endArrow=none;endFill=0;" parent="1" source="Pe75mvs691sBOPTV4Ebk-143" target="Pe75mvs691sBOPTV4Ebk-125" edge="1">
          <mxGeometry relative="1" as="geometry">
            <Array as="points">
              <mxPoint x="165" y="900" />
              <mxPoint x="160" y="900" />
            </Array>
          </mxGeometry>
        </mxCell>
        <mxCell id="Pe75mvs691sBOPTV4Ebk-127" value="INT-FD fault" style="ellipse;whiteSpace=wrap;html=1;aspect=fixed;fontFamily=Helvetica;fontSize=11;fontColor=default;strokeColor=#01bbfa;" parent="1" vertex="1">
          <mxGeometry x="175" y="1144.97" width="70" height="70" as="geometry" />
        </mxCell>
        <mxCell id="Pe75mvs691sBOPTV4Ebk-134" value="Fault in transmission" style="whiteSpace=wrap;html=1;fontFamily=Helvetica;fontSize=11;fontColor=default;strokeColor=#01bbfa;" parent="1" vertex="1">
          <mxGeometry x="210" y="764.97" width="80" height="60" as="geometry" />
        </mxCell>
        <mxCell id="Pe75mvs691sBOPTV4Ebk-135" style="edgeStyle=orthogonalEdgeStyle;shape=connector;rounded=0;orthogonalLoop=1;jettySize=auto;html=1;exitX=0;exitY=0.75;exitDx=0;exitDy=0;exitPerimeter=0;entryX=0.5;entryY=0;entryDx=0;entryDy=0;labelBackgroundColor=default;strokeColor=default;align=center;verticalAlign=middle;fontFamily=Helvetica;fontSize=11;fontColor=default;endArrow=none;endFill=0;" parent="1" source="Pe75mvs691sBOPTV4Ebk-124" target="Pe75mvs691sBOPTV4Ebk-134" edge="1">
          <mxGeometry relative="1" as="geometry" />
        </mxCell>
        <mxCell id="Pe75mvs691sBOPTV4Ebk-136" value="Transient failure in current Ethernet route" style="ellipse;whiteSpace=wrap;html=1;aspect=fixed;fontFamily=Helvetica;fontSize=11;fontColor=default;strokeColor=#01bbfa;" parent="1" vertex="1">
          <mxGeometry x="300" y="904.97" width="90" height="90" as="geometry" />
        </mxCell>
        <mxCell id="Pe75mvs691sBOPTV4Ebk-137" value="Recurrent fault in Ethernet sytem" style="ellipse;whiteSpace=wrap;html=1;aspect=fixed;fontFamily=Helvetica;fontSize=11;fontColor=default;strokeColor=#01bbfa;" parent="1" vertex="1">
          <mxGeometry x="215" y="914.97" width="70" height="70" as="geometry" />
        </mxCell>
        <mxCell id="Pe75mvs691sBOPTV4Ebk-138" style="edgeStyle=orthogonalEdgeStyle;shape=connector;rounded=0;orthogonalLoop=1;jettySize=auto;html=1;exitX=0;exitY=0.75;exitDx=0;exitDy=0;exitPerimeter=0;entryX=0.5;entryY=0;entryDx=0;entryDy=0;labelBackgroundColor=default;strokeColor=default;align=center;verticalAlign=middle;fontFamily=Helvetica;fontSize=11;fontColor=default;endArrow=none;endFill=0;" parent="1" source="Pe75mvs691sBOPTV4Ebk-139" target="Pe75mvs691sBOPTV4Ebk-136" edge="1">
          <mxGeometry relative="1" as="geometry">
            <Array as="points">
              <mxPoint x="270" y="894.97" />
              <mxPoint x="345" y="894.97" />
            </Array>
          </mxGeometry>
        </mxCell>
        <mxCell id="Pe75mvs691sBOPTV4Ebk-140" style="edgeStyle=orthogonalEdgeStyle;shape=connector;rounded=0;orthogonalLoop=1;jettySize=auto;html=1;exitX=0.5;exitY=0;exitDx=0;exitDy=0;entryX=0;entryY=0.25;entryDx=0;entryDy=0;entryPerimeter=0;labelBackgroundColor=default;strokeColor=default;align=center;verticalAlign=middle;fontFamily=Helvetica;fontSize=11;fontColor=default;endArrow=none;endFill=0;" parent="1" source="Pe75mvs691sBOPTV4Ebk-137" target="Pe75mvs691sBOPTV4Ebk-139" edge="1">
          <mxGeometry relative="1" as="geometry" />
        </mxCell>
        <mxCell id="Pe75mvs691sBOPTV4Ebk-142" value="Backup Ethernet system (ALL-RED) fails to mitigate" style="whiteSpace=wrap;html=1;fontFamily=Helvetica;fontSize=11;fontColor=default;strokeColor=#01bbfa;" parent="1" vertex="1">
          <mxGeometry x="100" y="764.97" width="95" height="60" as="geometry" />
        </mxCell>
        <mxCell id="Pe75mvs691sBOPTV4Ebk-133" style="edgeStyle=orthogonalEdgeStyle;shape=connector;rounded=0;orthogonalLoop=1;jettySize=auto;html=1;exitX=0;exitY=0.25;exitDx=0;exitDy=0;exitPerimeter=0;entryX=0.75;entryY=0;entryDx=0;entryDy=0;labelBackgroundColor=default;strokeColor=default;align=center;verticalAlign=middle;fontFamily=Helvetica;fontSize=11;fontColor=default;endArrow=none;endFill=0;" parent="1" source="Pe75mvs691sBOPTV4Ebk-124" target="Pe75mvs691sBOPTV4Ebk-142" edge="1">
          <mxGeometry relative="1" as="geometry">
            <Array as="points">
              <mxPoint x="175" y="754.97" />
            </Array>
          </mxGeometry>
        </mxCell>
        <mxCell id="Pe75mvs691sBOPTV4Ebk-147" value="ALL-RED fault" style="ellipse;whiteSpace=wrap;html=1;aspect=fixed;fontFamily=Helvetica;fontSize=11;fontColor=default;strokeColor=#01bbfa;" parent="1" vertex="1">
          <mxGeometry x="30" y="914.97" width="70" height="70" as="geometry" />
        </mxCell>
        <mxCell id="Pe75mvs691sBOPTV4Ebk-148" style="edgeStyle=orthogonalEdgeStyle;shape=connector;rounded=0;orthogonalLoop=1;jettySize=auto;html=1;exitX=0;exitY=0.25;exitDx=0;exitDy=0;exitPerimeter=0;entryX=0.5;entryY=0;entryDx=0;entryDy=0;labelBackgroundColor=default;strokeColor=default;align=center;verticalAlign=middle;fontFamily=Helvetica;fontSize=11;fontColor=default;endArrow=none;endFill=0;" parent="1" source="Pe75mvs691sBOPTV4Ebk-143" target="Pe75mvs691sBOPTV4Ebk-147" edge="1">
          <mxGeometry relative="1" as="geometry">
            <Array as="points">
              <mxPoint x="145" y="894.97" />
              <mxPoint x="65" y="894.97" />
            </Array>
          </mxGeometry>
        </mxCell>
        <mxCell id="jW-7ILWIyM_mXDFZD3dg-16" value="" style="edgeStyle=orthogonalEdgeStyle;rounded=0;orthogonalLoop=1;jettySize=auto;html=1;endArrow=none;endFill=0;" edge="1" parent="1" source="jW-7ILWIyM_mXDFZD3dg-14" target="Pe75mvs691sBOPTV4Ebk-127">
          <mxGeometry relative="1" as="geometry" />
        </mxCell>
        <mxCell id="jW-7ILWIyM_mXDFZD3dg-14" value="Comms fault undetected" style="whiteSpace=wrap;html=1;fontFamily=Helvetica;fontSize=11;fontColor=default;strokeColor=#01bbfa;" vertex="1" parent="1">
          <mxGeometry x="170" y="1054.97" width="80" height="60" as="geometry" />
        </mxCell>
        <mxCell id="jW-7ILWIyM_mXDFZD3dg-21" value="PTP-GM&lt;div&gt;fault&lt;/div&gt;" style="ellipse;whiteSpace=wrap;html=1;aspect=fixed;fontFamily=Helvetica;fontSize=11;fontColor=default;strokeColor=#01bbfa;" vertex="1" parent="1">
          <mxGeometry x="515" y="1090" width="70" height="70" as="geometry" />
        </mxCell>
        <mxCell id="jW-7ILWIyM_mXDFZD3dg-24" value="" style="edgeStyle=orthogonalEdgeStyle;rounded=0;orthogonalLoop=1;jettySize=auto;html=1;endArrow=none;endFill=0;" edge="1" parent="1" source="jW-7ILWIyM_mXDFZD3dg-22" target="jW-7ILWIyM_mXDFZD3dg-21">
          <mxGeometry relative="1" as="geometry" />
        </mxCell>
        <mxCell id="jW-7ILWIyM_mXDFZD3dg-22" value="Timing fault in Ethernet system" style="whiteSpace=wrap;html=1;fontFamily=Helvetica;fontSize=11;fontColor=default;strokeColor=#00bfff;" vertex="1" parent="1">
          <mxGeometry x="510" y="1000" width="80" height="60" as="geometry" />
        </mxCell>
        <mxCell id="jW-7ILWIyM_mXDFZD3dg-32" value="" style="edgeStyle=orthogonalEdgeStyle;rounded=0;orthogonalLoop=1;jettySize=auto;html=1;endArrow=none;endFill=0;" edge="1" parent="1" source="jW-7ILWIyM_mXDFZD3dg-30" target="jW-7ILWIyM_mXDFZD3dg-31">
          <mxGeometry relative="1" as="geometry" />
        </mxCell>
        <mxCell id="jW-7ILWIyM_mXDFZD3dg-30" value="Comms fault detected but no switch" style="whiteSpace=wrap;html=1;fontFamily=Helvetica;fontSize=11;fontColor=default;strokeColor=#01bbfa;" vertex="1" parent="1">
          <mxGeometry x="70" y="1054.97" width="80" height="60" as="geometry" />
        </mxCell>
        <mxCell id="jW-7ILWIyM_mXDFZD3dg-31" value="INT-SWC fault" style="ellipse;whiteSpace=wrap;html=1;aspect=fixed;fontFamily=Helvetica;fontSize=11;fontColor=default;strokeColor=#01bbfa;" vertex="1" parent="1">
          <mxGeometry x="75" y="1144.97" width="70" height="70" as="geometry" />
        </mxCell>
        <mxCell id="jW-7ILWIyM_mXDFZD3dg-34" style="edgeStyle=orthogonalEdgeStyle;rounded=0;orthogonalLoop=1;jettySize=auto;html=1;exitX=0.5;exitY=1;exitDx=0;exitDy=0;entryX=1;entryY=0.5;entryDx=0;entryDy=0;entryPerimeter=0;endArrow=none;endFill=0;" edge="1" parent="1" source="ryoAnqw1Qg5WgR0MWTuV-1" target="Pe75mvs691sBOPTV4Ebk-1">
          <mxGeometry relative="1" as="geometry" />
        </mxCell>
      </root>
    </mxGraphModel>
  </diagram>
</mxfile>
